<svg id="eBHnpNvgaOd1" xmlns="http://www.w3.org/2000/svg" xmlns:xlink="http://www.w3.org/1999/xlink" viewBox="0 0 357.42 374.31" shape-rendering="geometricPrecision" text-rendering="geometricPrecision" project-id="c2d66ccc6d3f4b86b4c76755a719461f" export-id="b1302b22d10143f286dbaa842ff4c4c9" cached="false">
<style><![CDATA[
#eBHnpNvgaOd2_tr {animation: eBHnpNvgaOd2_tr__tr 1800ms linear 1 normal forwards}@keyframes eBHnpNvgaOd2_tr__tr { 0% {transform: translate(288.790237px,108.689152px) rotate(0deg)} 27.777778% {transform: translate(288.790237px,108.689152px) rotate(-8.241104deg)} 55.555556% {transform: translate(288.790237px,108.689152px) rotate(14.977063deg)} 83.333333% {transform: translate(288.790237px,108.689152px) rotate(0deg)} 100% {transform: translate(288.790237px,108.689152px) rotate(0deg)}} #eBHnpNvgaOd3_tr {animation: eBHnpNvgaOd3_tr__tr 1800ms linear 1 normal forwards}@keyframes eBHnpNvgaOd3_tr__tr { 0% {transform: translate(131.860049px,187.299659px) rotate(0deg)} 38.888889% {transform: translate(131.860049px,187.299659px) rotate(-7.369979deg)} 83.333333% {transform: translate(131.860049px,187.299659px) rotate(0deg)} 100% {transform: translate(131.860049px,187.299659px) rotate(0deg)}}
]]></style>
<g id="eBHnpNvgaOd2_tr" transform="translate(288.790237,108.689152) rotate(0)"><path d="M307.55,128.4c.09.8-.68,1.17-.62,1.98.18,2.38.67,4.69.48,6.99s-.85,4.62-1.42,6.87-.69,4.75-1.62,6.89-2.33,4.13-3.6,6.1-2.86,3.73-4.43,5.48-3.52,3.04-5.36,4.51-3.47,3.16-5.53,4.32-4.24,1.92-6.47,2.73-4.41,1.42-6.75,1.86-4.56,1.16-6.95,1.22c-2.4.06-4.83.02-7.15-.31s-4.72-.94-6.97-1.65-4.14-2.37-6.25-3.44-4-2.37-5.91-3.77-3.89-2.63-5.56-4.32-3.81-3.01-5.19-4.95-1.59-4.54-2.64-6.69-2.48-4.04-3.16-6.34-1.22-4.56-1.51-6.95c-.29-2.37-.5-4.72-.41-7.02s.29-4.74.76-7.01.94-4.68,1.77-6.85s2.15-4.23,3.32-6.25s2.39-4.09,3.87-5.9s3.61-3.02,5.36-4.58s3.33-3.32,5.32-4.57s3.9-2.73,6.07-3.65s4.46-1.61,6.76-2.16s4.72.22,7.09.03c2.51-.19,4.93-.73,7.36-.5s4.83.46,7.2,1.1c2.6-2.63,2.04-3.06,3.78-6.33s1.41-3.44,3.14-6.72s1.39-3.46,3.13-6.73s1.63-3.33,3.36-6.6s2.22-3.02,3.96-6.29s1.35-3.48,3.09-6.76s2.58-2.83,4.31-6.11c1.24-2.33,2.73-3.54,4.41-4.46c2.11-1.16,4.14-1.95,6.19-1.37l.06-.09c2.78,1.22,3.39,3.46,3.26,5.92-.1,2.08-.15,4.77-1.43,7.18-1.76,3.31-2.26,3.05-4.01,6.36s-1.82,3.28-3.58,6.59-2.12,3.12-3.88,6.44-1.1,3.66-2.85,6.97-2.13,3.12-3.88,6.44-1.53,3.44-3.29,6.76-2.08,3.15-3.46,6.64c.66.63,2.19,2.63,4.5,4.77c1.6,1.48,4.05,2.38,5.62,3.88c2.28,2.17,3.81,4.74,4.35,5.47c3.18-1.11,3.14-1.31,6.15-2.81s2.76-2.01,5.77-3.51s3.15-1.23,6.16-2.74s2.8-1.92,5.81-3.42s3.34-.85,6.35-2.36s2.9-1.74,5.91-3.24s2.79-1.95,5.81-3.46c2.11-1.05,4.34-.5,6.19-.48c2.84.03,5.54.05,6.24,1.05.39.63-.34,1.07.02,1.72.96,1.8.37,4.07-1.01,6.56-1.09,1.96-2.59,3.55-4.94,4.73-3.12,1.56-2.87,2.05-5.99,3.61s-3.13,1.54-6.25,3.09-3.13,1.55-6.25,3.1-3.17,1.45-6.29,3.01-3.03,1.74-6.15,3.3-3.06,1.69-6.15,3.3-3.1,1.53-6.04,3.41l.02.01Z" transform="translate(-288.790237,-108.689152)" fill="#2d1926"/></g><g id="eBHnpNvgaOd3_tr" transform="translate(131.860049,187.299659) rotate(0)"><path d="M249.97,342.57c-3.73,0-3.73-.1-7.46-.1s-5.13,2.9-7.67.18c-2.72-2.9.28-4.18.28-8.16s-.31-3.98-.31-7.96.03-3.98.03-7.96c0-2.45.25-4.9.25-7.35s-.23-4.9-.24-7.35.42-4.91.41-7.35-.09-4.91-.11-7.35-.41-4.91-.43-7.34.19-4.92.16-7.35-.26-4.92-.3-7.34.13-4.94.08-7.35.05-4.94-.02-7.35-.57-4.93-.65-7.33.05-4.96-.05-7.35c-.11-2.52-.15-4.97-.28-7.34-.14-2.53-.34-4.98-.51-7.33-.18-2.56-.34-5-.55-7.32-.24-2.6-.29-5.07-.58-7.33-.34-2.67-.97-5.07-1.38-7.22-.54-2.87-1.33-5.19-2.02-7.02-.88-2.37-1.36-4.85-2.35-7.06s-2.36-4.42-3.51-6.56-2.69-4.19-4-6.25-2.48-4.32-3.94-6.28-3.23-3.77-4.84-5.62-3.19-3.8-4.93-5.53-3.71-3.27-5.58-4.89-3.55-3.47-5.51-4.98-4.02-2.88-6.07-4.27-4.15-2.68-6.27-3.98-4.17-2.65-6.34-3.87-4.4-2.24-6.61-3.39-4.37-2.29-6.6-3.39c-.09-.04.02.08.02-.02-.1-3.75-.48-3.74-.48-7.49s.08-3.75.08-7.5.27-3.75.27-7.5.14-3.75.14-7.49-.3-3.75-.3-7.49-.05-3.75-.05-7.49-.03-3.75-.03-7.49.44-3.75.44-7.5-.12-3.75-.12-7.5.01-3.75.01-7.5-.15-3.75-.15-7.5.19-3.76.09-7.51c-.25-2.55-1.01-4.88-1.55-7.13-.59-2.48-.99-4.89-1.89-7.03-.98-2.34-2.07-4.54-3.36-6.49-1.39-2.08-2.99-3.95-4.68-5.62s-3.93-2.89-5.93-4.21-3.98-2.84-6.2-3.79-4.53-1.89-6.88-2.48-4.86-.56-7.25-.84-4.85-.45-7.25-.44-4.93-.03-7.27.25c-2.51.29-4.98.48-7.23,1.03-2.16.52-4.16,1.74-6.27,2.69s-4,2.01-5.91,3.29-3.66,2.62-5.35,4.16-3.46,2.97-4.89,4.74c-1.62,2-2.72,4.24-3.85,6.41s-2.41,4.38-3.07,6.83c-.63,2.32-.83,4.83-1.04,7.43-.19,2.36-.41,4.86-.25,7.49.14,2.36.85,4.79,1.25,7.4.39,2.53.67,5.14,1.43,7.69s1.66,4.92,2.68,7.37s1.98,4.83,3.19,7.17s2.6,4.53,3.96,6.77s2.99,4.3,4.46,6.44c1.18,1.71,2.47,3.59,4.01,5.49c1.37,1.69,2.96,3.33,4.52,5.09s3.06,3.32,4.63,4.99s2.96,3.5,4.53,5.1s3.17,3.39,4.72,4.93c1.73,1.71,3.34,3.37,4.83,4.81c1.95,1.88,4,3.43,5.29,4.63-1.81.02-4.62-.02-7.8.2-2.25.15-4.78.49-7.54.8-2.36.26-4.85.75-7.49,1.16-2.4.38-4.98.38-7.55.91-2.41.51-4.9,1.08-7.4,1.75s-4.73,1.73-7.17,2.54-4.74,1.68-7.1,2.65c-2.24.92-4.55,1.46-6.64,2.36-2.21.96-4.15,2.36-6.21,3.34-2.17,1.03-4.31,1.95-6.34,3.04s-4.12,2.28-6.08,3.52-4.15,2.25-6.02,3.68-3.45,3.15-5.2,4.77-3.46,3.09-5.07,4.89c-1.52,1.68-2.76,3.69-4.24,5.62-1.37,1.79-3.08,3.45-4.43,5.48-1.25,1.88-2.06,4.13-3.3,6.24-1.14,1.94-2.56,3.83-3.7,5.99-1.06,2-2.12,4.09-3.18,6.29-1.05,2.15-1.8,4.54-2.62,7.02-.76,2.28-1.58,4.64-2.16,7.17-.54,2.35-1.08,4.79-1.5,7.35-.39,2.39-.86,4.85-1.15,7.41-.27,2.41-.2,4.94-.4,7.49s-.48,4.92-.61,7.47-.08,4.94-.15,7.49-.17,4.95-.21,7.49-.23,4.95-.25,7.49.3,4.96.3,7.5.06,4.97.07,7.5c0,3.71-.47,3.72-.47,7.43s.02,3.72.02,7.43.15,3.72.15,7.43-.15,3.71-.15,7.43.16,3.71.16,7.43.34,3.71.34,7.43-.57,3.72-.57,7.43.34,3.72.34,7.43-.3,3.72-.3,7.43.49,3.72.49,7.43-.47,3.72-.47,7.44.38,3.72.38,7.44c0,2.68.31,4.9.82,6.82.71,2.7,1.83,4.59,3.12,6.01c1.94,2.14,4.06,2.92,5.87,2.92q3.34,0,6.69,0c3.35,0,3.35.23,6.69.23s3.35-.07,6.69-.07c2.51,0,4.88-.97,6.91-2.64c1.88-1.54,3.32-3.67,4.42-6.04s1.75-4.74,1.75-7.27c0-2.82-.47-5.44-1.53-7.67-1.18-2.48-2.84-4.71-4.95-6.13s-4.86-1.77-7.58-1.77c-3.7,0-3.7-.2-7.39-.2s-4.97,2.74-7.6.14s0-3.87,0-7.53.17-3.66.17-7.32-.2-3.66-.2-7.32-.04-3.66-.04-7.32.38-3.66.38-7.32.17-3.66.17-7.31-.1-3.66-.1-7.32-.32-3.66-.32-7.32.27-3.66.27-7.32-.03-3.66-.03-7.32-.25-3.66-.25-7.32.35-3.66.35-7.32-.14-3.66-.14-7.32-.05-3.66-.05-7.32c0-2.35.22-4.7.61-7.02s1-4.61,1.78-6.81s1.97-4.26,3.18-6.26s2.61-3.87,4.26-5.53s3.26-3.4,5.34-4.58s4.21-1.97,6.58-2.56c2.17-.53,4.52-.7,7.01-.7s4.97.23,7.2.79c2.43.62,4.76,1.39,6.79,2.61s3.85,2.96,5.51,4.75s2.89,3.78,4.11,5.95c1.15,2.04,2.16,4.22,2.99,6.58.78,2.22,1.57,4.51,2.06,6.95.47,2.31,1.01,4.7,1.24,7.17s.2,4.81.2,7.28c.01,3.54-.19,3.54-.17,7.08s-.01,3.54,0,7.08c.02,3.54.27,3.54.29,7.08s-.38,3.54-.36,7.09.28,3.54.3,7.08-.02,3.54,0,7.09-.09,3.54-.08,7.09.39,3.54.4,7.08-.38,3.54-.36,7.09.09,3.54.11,7.08-.1,3.54-.08,7.09.46,3.54.47,7.08.04,3.54.06,7.08-.24,3.55-.22,7.09s0,3.55.02,7.09.17,3.55.19,7.09c0,.08.06.08.11.13.41,3.51,1.16,6.17,2.44,8.01c2.09,3,4.99,3.92,7.13,3.92c1.63,0,3.31.04,5.14.09.7,0,1.38.27,2.08.27c1.98.03,4.12.08,6.45.1c2,.02,4.14-.24,6.46-.24c2.51,0,4.95-.85,6.98-2.48c1.88-1.51,3.4-3.65,4.49-6.01s1.83-4.77,1.83-7.3c0-2.82-.89-5.36-1.94-7.59-1.17-2.48-2.78-4.62-4.89-6.04s-4.74-2.05-7.46-2.05c-3.7,0-3.7-.04-7.41-.04s-3.7.04-7.4.08c-.05,0-.15.05-.19.02-.12-.1.16-.25.16-.4-.07-3.42-.29-3.41-.29-6.83s-.09-3.42-.09-6.84.45-3.42.45-6.84-.28-3.42-.28-6.84.2-3.42.2-6.84-.34-3.42-.34-6.84.44-3.42.44-6.84-.31-3.42-.31-6.85.15-3.42.16-6.85c0-.05-.16-3.78-.16-8.35c0-2.69-.25-5.67-.25-8.36c0-4.57.3-8.31.3-8.36c0-2.51.08-4.93.19-7.25.12-2.52.13-4.95.39-7.25.28-2.53.55-4.95.99-7.2.5-2.51,1.45-4.77,2.15-6.94.79-2.45,1.79-4.62,2.85-6.63c1.19-2.27,2.4-4.32,3.93-6.04c1.65-1.86,3.39-3.55,5.44-4.77s4.33-2.01,6.77-2.58c2.23-.52,4.63-.59,7.2-.59s4.92.06,7.1.54c2.45.54,4.65,1.42,6.65,2.55s3.96,2.62,5.59,4.4c1.54,1.69,2.94,3.63,4.1,5.84c1.05,1.99,1.95,4.21,2.71,6.62.68,2.15,1.03,4.51,1.5,6.98.42,2.23.99,4.55,1.25,7.04.24,2.27.25,4.66.37,7.14.1,2.3.28,4.68.28,7.15c0,3.69-.33,3.69-.33,7.39s.23,3.69.23,7.39c0,3.69.3,3.69.3,7.39s-.04,3.69-.04,7.39.02,3.7.02,7.39-.14,3.69-.14,7.39-.11,3.69-.11,7.39-.1,3.69-.1,7.39.38,3.69.38,7.39-.18,3.7-.18,7.39.07,3.7.07,7.39-.4,3.7-.4,7.39.37,3.7.37,7.4.08,3.7.05,7.4c0,.04-.5,0-.5.04c0,2.7.51,5.01,1.04,6.93.74,2.7,2.08,4.57,3.4,5.99c1.97,2.11,4.19,3.13,6.01,3.13c3.32,0,3.32.15,6.63.15s3.32-.09,6.64-.09s3.32-.26,6.64-.26c2.51,0,4.76-1.06,6.8-2.73c1.87-1.54,3.57-3.47,4.66-5.84s1.77-4.8,1.77-7.33c0-2.82-.57-5.47-1.63-7.7-1.18-2.48-2.92-4.65-5.04-6.07s-4.84-2.12-7.56-2.12c-3.65,0-3.65.24-7.29.24s-4.65,2.32-7.3-.18c-2.5-2.36-.13-3.45-.13-6.89s0-3.44,0-6.88.35-3.44.35-6.87.09-3.44.09-6.88-.43-3.44-.43-6.89.22-3.44.22-6.89c0-2.52.11-4.92.34-7.21.25-2.52.35-4.94.85-7.19.55-2.48,1.16-4.85,1.99-6.98.92-2.36,2.51-4.25,3.74-6.2c1.34-2.13,2.42-4.35,4.07-5.97c1.76-1.73,3.9-2.93,5.97-4.09s4.3-2.16,6.66-2.74s4.7-.68,7.17-.68s4.75.31,7.03,1.1s4.21,2.01,6.21,3.48c1.84,1.35,3.72,2.82,5.32,4.76c1.45,1.75,3.01,3.63,4.19,5.85c1.07,2.01,2,4.26,2.81,6.63.74,2.16,1.21,4.53,1.71,6.99.46,2.24.98,4.6,1.21,7.09.21,2.29.07,4.7.07,7.19s.1,4.67.1,6.87c0,2.39.14,4.68.14,6.87c0,2.41-.11,4.7-.11,6.87c0,2.43-.39,4.72-.39,6.87c0,2.47.18,4.76.18,6.87c0,2.55.36,4.83.36,6.87c0,2.72-.53,5-.53,6.86c0,4.76.3,3.43.3,6.86c0,.23-.02.43,0,.65c0,.2.32.41.37.61.06,2.53.29,4.63.82,6.41.75,2.53,1.6,4.52,2.88,5.81c1.89,1.89,4.21,2.33,5.94,2.33c2.07,0,4.28-.04,6.71.03c2.05.06,4.26.53,6.69.58c2.07.05,4.29.17,6.71.17s4.88-1.29,6.91-2.96c1.88-1.54,3.6-3.54,4.69-5.92s1.44-4.87,1.44-7.41c0-2.83-.78-5.28-1.84-7.51-1.18-2.48-2.52-4.84-4.64-6.26s-4.85-1.93-7.57-1.93l.01.08ZM88.36,33.84c.57-2.37,1.58-4.5,2.75-6.41s2.59-3.99,4.35-5.5s3.95-2.48,6.08-3.48s4.22-2.02,6.53-2.52s4.63-.73,6.98-.77s4.65.4,6.95.81s4.63.83,6.79,1.69s4.04,2.33,5.96,3.64s3.68,2.76,5.24,4.53s3.13,3.44,4.2,5.58c.99,2,1.56,4.3,2.07,6.68.47,2.16.92,4.46.93,6.93c0,3.6-.23,2.72-.26,7.21-.01,2.06-.18,4.49-.2,7.2-.01,2.23.4,4.65.39,7.21-.01,2.3-.25,4.72-.26,7.21-.01,2.35-.1,4.76-.11,7.21s.04,4.79.03,7.21-.05,4.82-.06,7.21-.22,4.86-.23,7.21c0,2.48.26,4.9.25,7.21c0,2.54.19,4.96.2,7.21c0,2.67-.49,5.1-.48,7.21.03,1.05-1.68,1.53-2.76.73-1.75-1.26-4.07-2.96-6.21-5.11-1.87-1.87-3.55-4.13-5.31-6.06-2.13-2.34-4.21-4.36-5.52-5.84-1.59-1.81-3.05-3.73-4.64-5.53s-3.34-3.48-4.91-5.29-2.86-3.9-4.4-5.73-3.16-3.66-4.64-5.52-3.05-3.77-4.46-5.67-2.75-3.99-4.07-5.95-2.78-3.99-3.96-6.03-2.31-4.28-3.29-6.41-1.71-4.53-2.44-6.77-1.79-4.56-2.16-6.9c-.37-2.39-.46-4.83-.38-7.23s.46-4.77,1.03-7.16l.02-.01Z" transform="translate(-131.860049,-187.299659)" fill="#2d1926"/></g></svg>
